<mxfile host="Electron" modified="2024-04-04T12:43:06.552Z" agent="Mozilla/5.0 (Windows NT 10.0; Win64; x64) AppleWebKit/537.36 (KHTML, like Gecko) draw.io/24.1.0 Chrome/120.0.6099.109 Electron/28.1.0 Safari/537.36" etag="98WC5qgOJP9MiepeBZFw" version="24.1.0" type="device">
  <diagram name="Pagina-1" id="X9m-35pAYE2k5PsHio-0">
    <mxGraphModel dx="864" dy="516" grid="1" gridSize="10" guides="1" tooltips="1" connect="1" arrows="1" fold="1" page="1" pageScale="1" pageWidth="827" pageHeight="1169" math="0" shadow="0">
      <root>
        <mxCell id="0" />
        <mxCell id="1" parent="0" />
        <mxCell id="Jde8AIR2S0jAWG-vmuVR-2" value="GIANPIERO" style="rounded=0;whiteSpace=wrap;html=1;fillColor=#f5f5f5;fontColor=#333333;strokeColor=#666666;" parent="1" vertex="1">
          <mxGeometry x="40" y="120" width="120" height="30" as="geometry" />
        </mxCell>
        <mxCell id="Jde8AIR2S0jAWG-vmuVR-3" value="PAWEL" style="rounded=0;whiteSpace=wrap;html=1;fillColor=#f5f5f5;fontColor=#333333;strokeColor=#666666;" parent="1" vertex="1">
          <mxGeometry x="160" y="120" width="120" height="30" as="geometry" />
        </mxCell>
        <mxCell id="Jde8AIR2S0jAWG-vmuVR-4" value="TIZIANO" style="rounded=0;whiteSpace=wrap;html=1;fillColor=#f5f5f5;fontColor=#333333;strokeColor=#666666;" parent="1" vertex="1">
          <mxGeometry x="280" y="120" width="120" height="30" as="geometry" />
        </mxCell>
        <mxCell id="Jde8AIR2S0jAWG-vmuVR-5" value="MARCO" style="rounded=0;whiteSpace=wrap;html=1;fillColor=#f5f5f5;fontColor=#333333;strokeColor=#666666;" parent="1" vertex="1">
          <mxGeometry x="400" y="120" width="120" height="30" as="geometry" />
        </mxCell>
        <mxCell id="Jde8AIR2S0jAWG-vmuVR-6" value="RAMIL" style="rounded=0;whiteSpace=wrap;html=1;fillColor=#f5f5f5;fontColor=#333333;strokeColor=#666666;" parent="1" vertex="1">
          <mxGeometry x="520" y="120" width="120" height="30" as="geometry" />
        </mxCell>
        <mxCell id="Jde8AIR2S0jAWG-vmuVR-7" value="MONICA" style="rounded=0;whiteSpace=wrap;html=1;fillColor=#f5f5f5;fontColor=#333333;strokeColor=#666666;" parent="1" vertex="1">
          <mxGeometry x="640" y="120" width="120" height="30" as="geometry" />
        </mxCell>
        <mxCell id="Jde8AIR2S0jAWG-vmuVR-8" value="VALERIO" style="rounded=0;whiteSpace=wrap;html=1;fillColor=#fff2cc;strokeColor=#d6b656;" parent="1" vertex="1">
          <mxGeometry x="40" y="150" width="120" height="30" as="geometry" />
        </mxCell>
        <mxCell id="Jde8AIR2S0jAWG-vmuVR-9" value="DAVIDE" style="rounded=0;whiteSpace=wrap;html=1;fillColor=#fff2cc;strokeColor=#d6b656;" parent="1" vertex="1">
          <mxGeometry x="160" y="150" width="120" height="30" as="geometry" />
        </mxCell>
        <mxCell id="Jde8AIR2S0jAWG-vmuVR-10" value="JHOEL" style="rounded=0;whiteSpace=wrap;html=1;fillColor=#fff2cc;strokeColor=#d6b656;" parent="1" vertex="1">
          <mxGeometry x="280" y="150" width="120" height="30" as="geometry" />
        </mxCell>
        <mxCell id="Jde8AIR2S0jAWG-vmuVR-11" value="BRYAN" style="rounded=0;whiteSpace=wrap;html=1;fillColor=#fff2cc;strokeColor=#d6b656;" parent="1" vertex="1">
          <mxGeometry x="400" y="150" width="120" height="30" as="geometry" />
        </mxCell>
        <mxCell id="Jde8AIR2S0jAWG-vmuVR-12" value="DAMIANO" style="rounded=0;whiteSpace=wrap;html=1;fillColor=#fff2cc;strokeColor=#d6b656;" parent="1" vertex="1">
          <mxGeometry x="520" y="150" width="120" height="30" as="geometry" />
        </mxCell>
        <mxCell id="Jde8AIR2S0jAWG-vmuVR-14" value="&lt;font color=&quot;#000000&quot;&gt;MATTEO&lt;/font&gt;" style="rounded=0;whiteSpace=wrap;html=1;fillColor=#00FF00;strokeColor=#2D7600;fontColor=#ffffff;gradientColor=none;" parent="1" vertex="1">
          <mxGeometry x="40" y="180" width="120" height="30" as="geometry" />
        </mxCell>
        <mxCell id="Jde8AIR2S0jAWG-vmuVR-15" value="&lt;font color=&quot;#000000&quot;&gt;ANSELMI&lt;/font&gt;" style="rounded=0;whiteSpace=wrap;html=1;fillColor=#00FF00;strokeColor=#2D7600;fontColor=#ffffff;gradientColor=none;" parent="1" vertex="1">
          <mxGeometry x="160" y="180" width="120" height="30" as="geometry" />
        </mxCell>
        <mxCell id="Jde8AIR2S0jAWG-vmuVR-16" value="&lt;font color=&quot;#000000&quot;&gt;ANDREA(BALD)&lt;/font&gt;" style="rounded=0;whiteSpace=wrap;html=1;fillColor=#00FF00;strokeColor=#2D7600;fontColor=#ffffff;gradientColor=none;" parent="1" vertex="1">
          <mxGeometry x="280" y="180" width="120" height="30" as="geometry" />
        </mxCell>
        <mxCell id="Jde8AIR2S0jAWG-vmuVR-17" value="&lt;font color=&quot;#000000&quot;&gt;MORONI&lt;/font&gt;" style="rounded=0;whiteSpace=wrap;html=1;fillColor=#00FF00;strokeColor=#2D7600;fontColor=#ffffff;gradientColor=none;" parent="1" vertex="1">
          <mxGeometry x="400" y="180" width="120" height="30" as="geometry" />
        </mxCell>
        <mxCell id="Jde8AIR2S0jAWG-vmuVR-18" value="&lt;font color=&quot;#000000&quot;&gt;MARTINA&lt;/font&gt;" style="rounded=0;whiteSpace=wrap;html=1;fillColor=#00FF00;strokeColor=#2D7600;fontColor=#ffffff;gradientColor=none;" parent="1" vertex="1">
          <mxGeometry x="520" y="180" width="120" height="30" as="geometry" />
        </mxCell>
        <mxCell id="Jde8AIR2S0jAWG-vmuVR-20" value="&lt;font color=&quot;#000000&quot;&gt;FLAVIO&lt;/font&gt;" style="rounded=0;whiteSpace=wrap;html=1;fillColor=#33FFFF;fontColor=#ffffff;strokeColor=#006EAF;" parent="1" vertex="1">
          <mxGeometry x="40" y="210" width="120" height="30" as="geometry" />
        </mxCell>
        <mxCell id="Jde8AIR2S0jAWG-vmuVR-21" value="&lt;font color=&quot;#000000&quot;&gt;ANDREA(NULL)&lt;/font&gt;" style="rounded=0;whiteSpace=wrap;html=1;fillColor=#33FFFF;fontColor=#ffffff;strokeColor=#006EAF;" parent="1" vertex="1">
          <mxGeometry x="160" y="210" width="120" height="30" as="geometry" />
        </mxCell>
        <mxCell id="Jde8AIR2S0jAWG-vmuVR-22" value="&lt;font color=&quot;#000000&quot;&gt;ANDREA D.&lt;/font&gt;" style="rounded=0;whiteSpace=wrap;html=1;fillColor=#33FFFF;fontColor=#ffffff;strokeColor=#006EAF;" parent="1" vertex="1">
          <mxGeometry x="280" y="210" width="120" height="30" as="geometry" />
        </mxCell>
        <mxCell id="Jde8AIR2S0jAWG-vmuVR-24" value="&lt;font color=&quot;#000000&quot;&gt;LORENZO&lt;/font&gt;" style="rounded=0;whiteSpace=wrap;html=1;fillColor=#33FFFF;fontColor=#ffffff;strokeColor=#006EAF;" parent="1" vertex="1">
          <mxGeometry x="520" y="210" width="120" height="30" as="geometry" />
        </mxCell>
        <mxCell id="Jde8AIR2S0jAWG-vmuVR-39" value="JOHNNY PAX" style="rounded=0;whiteSpace=wrap;html=1;fillColor=#f0a30a;fontColor=#000000;strokeColor=#BD7000;" parent="1" vertex="1">
          <mxGeometry x="354" y="40" width="120" height="30" as="geometry" />
        </mxCell>
        <mxCell id="Jde8AIR2S0jAWG-vmuVR-40" value="" style="shape=actor;whiteSpace=wrap;html=1;" parent="1" vertex="1">
          <mxGeometry x="400" y="10" width="30" height="30" as="geometry" />
        </mxCell>
        <mxCell id="cPWESTaVm-vYeSUO7bRL-1" value="&lt;font color=&quot;#000000&quot;&gt;ENRICO&lt;/font&gt;" style="rounded=0;whiteSpace=wrap;html=1;fillColor=#33FFFF;fontColor=#ffffff;strokeColor=#006EAF;" vertex="1" parent="1">
          <mxGeometry x="400" y="210" width="120" height="30" as="geometry" />
        </mxCell>
        <mxCell id="cPWESTaVm-vYeSUO7bRL-2" value="FORMAZIONE UFFICIALE 6 SETTIMANA ANGULAR" style="text;html=1;align=center;verticalAlign=middle;whiteSpace=wrap;rounded=0;fontStyle=1" vertex="1" parent="1">
          <mxGeometry x="80" y="80" width="650" height="30" as="geometry" />
        </mxCell>
      </root>
    </mxGraphModel>
  </diagram>
</mxfile>
